<svg width="25" height="25" viewBox="0 0 25 25" fill="none" xmlns="http://www.w3.org/2000/svg">
<path fill-rule="evenodd" clip-rule="evenodd" d="M12 0.0295933C5.36398 0.0459512 0.0132224 5.42316 0.0295803 12.0591C0.0459382 18.6951 5.42314 24.0459 12.0591 24.0295C18.6951 24.0132 24.0459 18.636 24.0295 12C24.0131 5.364 18.6359 0.0132354 12 0.0295933ZM12.0532 21.6295C6.76122 21.6426 2.44262 17.3452 2.42957 12.0532C2.41653 6.76124 6.7139 2.44263 12.0059 2.42959C17.2979 2.41654 21.6165 6.71391 21.6295 12.0059C21.6426 17.2979 17.3452 21.6165 12.0532 21.6295ZM12.0254 10.3376L16.3227 6.01896L18.0189 7.70678L13.7215 12.0254L18.0401 16.3228L16.3523 18.0189L12.0337 13.7216L7.73635 18.0402L6.04018 16.3523L10.3375 12.0337L6.01894 7.73637L7.70677 6.0402L12.0254 10.3376Z" fill="white"/>
</svg>
