<svg width="108" height="104" viewBox="0 0 108 104" fill="none" xmlns="http://www.w3.org/2000/svg">
<rect width="108" height="104" rx="4" fill="black" fill-opacity="0.02"/>
<rect x="0.5" y="0.5" width="107" height="103" rx="3.5" stroke="black" stroke-opacity="0.15" stroke-dasharray="3 2"/>
<path d="M65.4068 34.875H55.0709V25.1719C55.0709 24.55 54.5484 24.0469 53.9026 24.0469C53.2568 24.0469 52.7343 24.55 52.7343 25.1719V34.875H42.6255C41.9798 34.875 41.4573 35.3781 41.4573 36C41.4573 36.6219 41.9798 37.125 42.6255 37.125H52.7343V46.8594C52.7343 47.4813 53.2568 47.9844 53.9026 47.9844C54.5484 47.9844 55.0709 47.4813 55.0709 46.8594V37.125H65.4068C66.0526 37.125 66.5751 36.6219 66.5751 36C66.5751 35.3781 66.0526 34.875 65.4068 34.875Z" fill="black" fill-opacity="0.45"/>
<mask id="mask0" mask-type="alpha" maskUnits="userSpaceOnUse" x="41" y="24" width="26" height="24">
<path d="M65.4068 34.875H55.0709V25.1719C55.0709 24.55 54.5484 24.0469 53.9026 24.0469C53.2568 24.0469 52.7343 24.55 52.7343 25.1719V34.875H42.6255C41.9798 34.875 41.4573 35.3781 41.4573 36C41.4573 36.6219 41.9798 37.125 42.6255 37.125H52.7343V46.8594C52.7343 47.4813 53.2568 47.9844 53.9026 47.9844C54.5484 47.9844 55.0709 47.4813 55.0709 46.8594V37.125H65.4068C66.0526 37.125 66.5751 36.6219 66.5751 36C66.5751 35.3781 66.0526 34.875 65.4068 34.875Z" fill="white"/>
</mask>
<g mask="url(#mask0)">
</g>
</svg>