<svg width="19" height="26" viewBox="0 0 19 26" fill="none" xmlns="http://www.w3.org/2000/svg">
<path fill-rule="evenodd" clip-rule="evenodd" d="M16.2179 2.94744C17.0845 3.85887 17.7716 4.93016 18.2567 6.12765C18.7531 7.36159 19.0055 8.66845 18.9999 10.0146V11.027L18.9943 11.5626V23.2009C18.9999 24.2778 18.167 25.1528 17.1406 25.1528H1.85933C0.832911 25.1528 0 24.2778 0 23.2009V10.0146C0 8.66284 0.252397 7.35598 0.748779 6.12765C1.22553 4.94138 1.91261 3.87009 2.78759 2.94744C3.65696 2.02759 4.66935 1.30125 5.80514 0.793649C6.98019 0.266419 8.22535 0 9.50416 0C10.783 0 12.0253 0.266419 13.2004 0.790845C14.3362 1.30125 15.3514 2.02759 16.2179 2.94744ZM6.55681 2.55763H6.55121C5.67062 2.95306 4.87697 3.52796 4.17867 4.26272C3.47757 5.00028 2.91949 5.86684 2.52687 6.83998C2.12023 7.85237 1.91551 8.91805 1.91551 10.0118V10.8447H17.0874V10.0146C17.0874 8.90963 16.8827 7.84396 16.476 6.83998C16.0862 5.87526 15.5337 5.00869 14.8242 4.25991C14.1203 3.52235 13.307 2.94184 12.4124 2.538C11.4898 2.12856 10.5082 1.91542 9.50145 1.91542C8.48906 1.91542 7.51032 2.12575 6.59327 2.54361L6.55681 2.55763ZM17.0958 12.7545V23.1981C17.0958 23.2149 17.093 23.229 17.0902 23.2374H1.92112C1.91831 23.229 1.91551 23.2149 1.91551 23.1981V12.7545H17.0958ZM8.61794 19.572V17.0621C8.1496 16.762 7.86075 16.2348 7.85794 15.6767C7.85794 14.7681 8.59551 14.0305 9.50414 14.0305C10.4128 14.0305 11.1503 14.7681 11.1503 15.6767C11.1503 16.2432 10.8671 16.7536 10.3959 17.0565V19.572C10.3959 20.0628 9.99771 20.461 9.50694 20.461C9.01617 20.461 8.61794 20.0628 8.61794 19.572Z" fill="#D45858"/>
</svg>
