<svg width="22" height="20" viewBox="0 0 22 20" fill="none" xmlns="http://www.w3.org/2000/svg">
<path fill-rule="evenodd" clip-rule="evenodd" d="M19.4932 9.97298V9.97298C19.4932 10.542 19.7167 11.1018 20.1892 11.4189L21.7415 12.4608C21.9509 12.6027 22.006 12.8581 21.8737 13.0662L19.6696 16.3392C19.5704 16.4905 19.383 16.5757 19.1957 16.5757C19.1295 16.5757 19.0634 16.5662 18.9973 16.5473L17.1425 15.9079C16.5809 15.7144 15.977 15.7951 15.4495 16.0683V16.0683C14.8226 16.393 14.3183 16.9609 14.202 17.6573L13.9718 19.0351C13.9387 19.2622 13.7073 19.4324 13.4317 19.4324H9.02337C8.74785 19.4324 8.51641 19.2622 8.48334 19.0351L8.25194 17.65C8.13634 16.9581 7.63627 16.3962 7.01228 16.0756V16.0756C6.48033 15.8023 5.87065 15.7156 5.30526 15.9105L3.45781 16.5473C3.40271 16.5662 3.33658 16.5757 3.27045 16.5757C3.07208 16.5757 2.88472 16.4905 2.78553 16.3392L0.581354 13.0662C0.449103 12.8581 0.504207 12.6027 0.713604 12.4608L2.26596 11.4189C2.73837 11.1018 2.96187 10.5419 2.96187 9.97298V9.97298V9.97298C2.96187 9.40402 2.73837 8.84416 2.26596 8.52708L0.713604 7.48514C0.504207 7.34325 0.438082 7.08784 0.581354 6.87974L2.78553 3.60676C2.88472 3.45541 3.07208 3.37028 3.25943 3.37028C3.32556 3.37028 3.39168 3.37974 3.45781 3.39865L5.31263 4.03803C5.87422 4.23161 6.47809 4.15082 7.00557 3.87765V3.87765C7.63252 3.55298 8.1368 2.98508 8.25315 2.2887L8.48334 0.910817C8.51641 0.68379 8.74785 0.513519 9.02337 0.513519H13.4317C13.7073 0.513519 13.9387 0.68379 13.9718 0.910817L14.2032 2.29591C14.3188 2.98785 14.8188 3.54977 15.4428 3.87035V3.87035C15.9748 4.14364 16.5844 4.23038 17.1498 4.03548L18.9973 3.39865C19.0524 3.37974 19.1185 3.37028 19.1846 3.37028C19.383 3.37028 19.5704 3.45541 19.6696 3.60676L21.8737 6.87974C22.006 7.08784 21.9509 7.34325 21.7415 7.48514L20.1892 8.52706C19.7167 8.84415 19.4932 9.404 19.4932 9.97298V9.97298ZM17.289 9.97298C17.289 9.77433 17.278 9.57568 17.2339 9.28244V9.28244C17.1396 8.62879 17.4274 7.97876 17.9748 7.60924L18.0605 7.55136L18.5962 7.18613C18.9522 6.94339 19.0452 6.45867 18.8044 6.10136V6.10136C18.6062 5.80727 18.2351 5.6831 17.8998 5.79867L17.0686 6.08514L17.0354 6.09672C16.3201 6.34578 15.5296 6.24705 14.8975 5.82974V5.82974C14.4567 5.54595 14.0158 5.32838 13.5419 5.15811L13.3968 5.10759C12.7662 4.88802 12.3061 4.34129 12.1974 3.68244V3.68244L12.1125 3.16449C12.0407 2.72673 11.6624 2.40541 11.2188 2.40541V2.40541C10.7781 2.40541 10.4013 2.72269 10.3264 3.15699L10.2357 3.68244V3.68244C10.127 4.34129 9.66683 4.88802 9.03621 5.10759L8.89112 5.15811C8.43926 5.31892 7.9874 5.54595 7.5135 5.84865V5.84865C6.88761 6.25455 6.10947 6.34903 5.40463 6.10471L5.37545 6.0946L4.54117 5.80704C4.20773 5.69211 3.83868 5.8156 3.64155 6.10807V6.10807C3.40039 6.46587 3.49609 6.95154 3.85495 7.19111L4.39459 7.55136L4.48033 7.60924C5.0277 7.97876 5.31551 8.62879 5.22115 9.28244V9.28244C5.18809 9.56622 5.16605 9.78379 5.16605 9.97298C5.16605 10.1622 5.18809 10.3797 5.22115 10.673V10.673C5.31551 11.3266 5.0277 11.9767 4.48033 12.3462L4.39459 12.4041L3.85495 12.7643C3.49609 13.0039 3.40039 13.4896 3.64155 13.8473V13.8473C3.83868 14.1398 4.20773 14.2633 4.54117 14.1484L5.37545 13.8608L5.40871 13.8492C6.124 13.6002 6.9145 13.6989 7.54657 14.1162V14.1162C7.9874 14.4 8.42824 14.6176 8.90214 14.7878L9.04723 14.8384C9.67785 15.0579 10.138 15.6047 10.2467 16.2635V16.2635L10.3307 16.776C10.403 17.2169 10.784 17.5405 11.2308 17.5405V17.5405C11.6747 17.5405 12.0542 17.221 12.1297 16.7836L12.2194 16.2635V16.2635C12.3281 15.6047 12.7883 15.0579 13.4189 14.8384L13.564 14.7878C14.0158 14.627 14.4677 14.4 14.9416 14.0973V14.0973C15.5675 13.6914 16.3456 13.5969 17.0505 13.8412L17.0796 13.8514L17.9139 14.1389C18.2474 14.2538 18.6164 14.1304 18.8135 13.8379V13.8379C19.0547 13.4801 18.959 12.9944 18.6001 12.7548L18.0605 12.3946L17.9748 12.3367C17.4274 11.9672 17.1396 11.3172 17.2339 10.6635V10.6635C17.267 10.3797 17.289 10.1716 17.289 9.97298ZM11.2275 6.1892C8.79193 6.1892 6.81919 7.88244 6.81919 9.97298C6.81919 12.0635 8.79193 13.7568 11.2275 13.7568C13.6632 13.7568 15.6359 12.0635 15.6359 9.97298C15.6359 7.88244 13.6632 6.1892 11.2275 6.1892ZM9.02337 9.97298C9.02337 11.0135 10.0152 11.8649 11.2275 11.8649C12.4398 11.8649 13.4317 11.0135 13.4317 9.97298C13.4317 8.93244 12.4398 8.08109 11.2275 8.08109C10.0152 8.08109 9.02337 8.93244 9.02337 9.97298Z" fill="#729EA1"/>
</svg>
