<svg width="20" height="12" viewBox="0 0 18 12" fill="none" xmlns="http://www.w3.org/2000/svg">
<path fill-rule="evenodd" clip-rule="evenodd" d="M1 0C0.447715 0 0 0.447715 0 1C0 1.55228 0.447715 2 1 2H18.7069C19.2592 2 19.7069 
1.55228 19.7069 1C19.7069 0.447715 19.2592 0 18.7069 0H1ZM0 11C0 11.5523 0.447715 12 0.999999 12H5.56897C6.12125 12 6.56897 11.5523
 6.56897 11C6.56897 10.4477 6.12125 10 5.56897 10H1C0.447715 10 0 10.4477 0 11ZM13.1379 6C13.1379 6.55228 12.6902 7 12.1379 7H1C0.447715 
 7 0 6.55228 0 6C0 5.44772 0.447715 5 0.999999 5H12.1379C12.6902 5 13.1379 5.44772 13.1379 6Z" fill="#729EA1"/>
</svg>